<svg height="512pt" viewBox="-68 0 512 512" width="512pt" xmlns="http://www.w3.org/2000/svg"><path d="m52.5 105c-28.945312 0-52.5-23.554688-52.5-52.5s23.554688-52.5 52.5-52.5 52.5 23.554688 52.5 52.5-23.554688 52.5-52.5 52.5zm0 0" fill="#25d9f8"/><path d="m187.5 0c-28.800781 0-52.5 23.699219-52.5 52.5s23.699219 52.5 52.5 52.5 52.5-23.699219 52.5-52.5-23.699219-52.5-52.5-52.5zm0 0" fill="#25d9f8"/><path d="m323.703125 105c-28.945313 0-52.5-23.554688-52.5-52.5s23.554687-52.5 52.5-52.5 52.5 23.554688 52.5 52.5-23.554687 52.5-52.5 52.5zm0 0" fill="#00c0f1"/><path d="m52.5 241c-28.945312 0-52.5-23.554688-52.5-52.5s23.554688-52.5 52.5-52.5 52.5 23.554688 52.5 52.5-23.554688 52.5-52.5 52.5zm0 0" fill="#25d9f8"/><path d="m187.5 136c-28.800781 0-52.5 23.699219-52.5 52.5s23.699219 52.5 52.5 52.5 52.5-23.699219 52.5-52.5-23.699219-52.5-52.5-52.5zm0 0" fill="#25d9f8"/><path d="m323.703125 241c-28.945313 0-52.5-23.554688-52.5-52.5s23.554687-52.5 52.5-52.5 52.5 23.554688 52.5 52.5-23.554687 52.5-52.5 52.5zm0 0" fill="#00c0f1"/><path d="m52.5 376c-28.945312 0-52.5-23.554688-52.5-52.5s23.554688-52.5 52.5-52.5 52.5 23.554688 52.5 52.5-23.554688 52.5-52.5 52.5zm0 0" fill="#25d9f8"/><path d="m187.5 271c-28.800781 0-52.5 23.699219-52.5 52.5s23.699219 52.5 52.5 52.5 52.5-23.699219 52.5-52.5-23.699219-52.5-52.5-52.5zm0 0" fill="#25d9f8"/><path d="m187.5 407c-28.800781 0-52.5 23.699219-52.5 52.5s23.699219 52.5 52.5 52.5 52.5-23.699219 52.5-52.5-23.699219-52.5-52.5-52.5zm0 0" fill="#25d9f8"/><g fill="#00c0f1"><path d="m323.703125 376c-28.945313 0-52.5-23.554688-52.5-52.5s23.554687-52.5 52.5-52.5 52.5 23.554688 52.5 52.5-23.554687 52.5-52.5 52.5zm0 0"/><path d="m240 459.5c0 28.800781-23.699219 52.5-52.5 52.5v-105c28.800781 0 52.5 23.699219 52.5 52.5zm0 0"/><path d="m240 323.5c0 28.800781-23.699219 52.5-52.5 52.5v-105c28.800781 0 52.5 23.699219 52.5 52.5zm0 0"/><path d="m240 188.5c0 28.800781-23.699219 52.5-52.5 52.5v-105c28.800781 0 52.5 23.699219 52.5 52.5zm0 0"/><path d="m187.5 105v-105c28.800781 0 52.5 23.699219 52.5 52.5s-23.699219 52.5-52.5 52.5zm0 0"/></g></svg>